<svg xmlns="http://www.w3.org/2000/svg" version="1.1" xmlns:xlink="http://www.w3.org/1999/xlink" xmlns:svgjs="http://svgjs.dev/svgjs" width="1500" height="1500" viewBox="0 0 1500 1500"><rect width="1500" height="1500" fill="#000000"></rect><g transform="matrix(0.6666666666666666,0,0,0.6666666666666666,249.39425016223538,568.0465397985986)"><svg viewBox="0 0 396 144" data-background-color="#191552" preserveAspectRatio="xMidYMid meet" height="545" width="1500" xmlns="http://www.w3.org/2000/svg" xmlns:xlink="http://www.w3.org/1999/xlink"><g id="tight-bounds" transform="matrix(1,0,0,1,0.24012306424526741,0.1136649605554112)"><svg viewBox="0 0 395.52 143.77267007888915" height="143.77267007888915" width="395.52"><g><svg viewBox="0 0 395.52 143.77267007888915" height="143.77267007888915" width="395.52"><g transform="matrix(1,0,0,1,0,73.97118808496279)"><svg viewBox="0 0 395.52 69.80148199392636" height="69.80148199392636" width="395.52"><g id="textblocktransform"><svg viewBox="0 0 395.52 69.80148199392636" height="69.80148199392636" width="395.52" id="textblock"><g><svg viewBox="0 0 395.52 69.80148199392636" height="69.80148199392636" width="395.52"><g transform="matrix(1,0,0,1,0,0)"><svg width="395.52" viewBox="1.6961700000000004 -21.061360000000004 273.18414 48.21161000000001" height="69.80148199392636" data-palette-color="#6ee2f5"><path d="M6.038 14.195l-4.342-0.828 6.528-34.234 14.666 2.797c1.506 0.287 2.829 0.862 3.967 1.724 1.131 0.867 2.065 1.914 2.802 3.14 0.731 1.219 1.228 2.528 1.49 3.929 0.269 1.402 0.275 2.777 0.018 4.126v0c-0.301 1.578-0.884 3.018-1.75 4.319-0.866 1.301-1.93 2.347-3.195 3.137-1.27 0.789-2.663 1.24-4.177 1.352v0l5.79 14.694-4.921-0.938-5.464-13.788-9.067-1.729zM11.832-16.188l-2.715 14.234 10.364 1.976c1.192 0.227 2.293 0.095 3.303-0.398 1.01-0.493 1.868-1.239 2.574-2.238 0.706-0.999 1.179-2.123 1.418-3.374v0c0.245-1.284 0.182-2.521-0.189-3.711-0.371-1.184-0.964-2.186-1.778-3.006-0.806-0.826-1.773-1.346-2.899-1.561v0zM48.084 21.319v0c-2.431-0.331-4.571-1.12-6.419-2.368-1.843-1.24-3.371-2.793-4.584-4.66-1.219-1.868-2.076-3.899-2.572-6.093-0.494-2.2-0.592-4.403-0.291-6.609v0c0.313-2.299 1.028-4.439 2.146-6.42 1.11-1.975 2.513-3.681 4.208-5.119 1.703-1.437 3.607-2.5 5.713-3.189 2.105-0.689 4.327-0.874 6.665-0.556v0c2.431 0.331 4.566 1.133 6.405 2.406 1.845 1.274 3.366 2.853 4.562 4.738 1.198 1.879 2.045 3.908 2.542 6.089 0.497 2.18 0.598 4.357 0.302 6.53v0c-0.314 2.305-1.019 4.447-2.115 6.424-1.098 1.983-2.494 3.694-4.191 5.131-1.703 1.437-3.605 2.49-5.708 3.159-2.11 0.675-4.331 0.854-6.663 0.537zM38.647 2.191v0c-0.238 1.751-0.185 3.484 0.161 5.199 0.345 1.716 0.95 3.278 1.814 4.688 0.865 1.403 1.977 2.577 3.336 3.522 1.358 0.945 2.929 1.539 4.712 1.782v0c1.85 0.252 3.557 0.087 5.124-0.494 1.566-0.581 2.946-1.449 4.139-2.605 1.2-1.155 2.178-2.509 2.934-4.062 0.755-1.546 1.246-3.147 1.472-4.805v0c0.238-1.751 0.183-3.474-0.164-5.17-0.347-1.702-0.962-3.266-1.845-4.691-0.877-1.418-1.989-2.592-3.335-3.522-1.341-0.923-2.887-1.503-4.638-1.741v0c-1.85-0.252-3.556-0.097-5.119 0.463-1.563 0.561-2.942 1.423-4.136 2.586-1.2 1.155-2.184 2.498-2.951 4.029-0.773 1.53-1.275 3.137-1.504 4.821zM85.302 25.237v0c-2.445-0.196-4.626-0.866-6.54-2.01-1.909-1.136-3.52-2.603-4.833-4.4-1.32-1.798-2.288-3.779-2.904-5.942-0.615-2.169-0.834-4.364-0.656-6.583v0c0.186-2.313 0.782-4.489 1.788-6.528 0.999-2.033 2.306-3.814 3.92-5.344 1.621-1.529 3.463-2.695 5.528-3.499 2.064-0.804 4.273-1.112 6.625-0.923v0c2.445 0.196 4.621 0.879 6.527 2.049 1.913 1.17 3.518 2.663 4.817 4.48 1.299 1.81 2.257 3.789 2.874 5.939 0.617 2.15 0.837 4.317 0.662 6.503v0c-0.186 2.319-0.772 4.496-1.758 6.531-0.986 2.041-2.287 3.826-3.901 5.355-1.621 1.529-3.463 2.685-5.525 3.469-2.07 0.79-4.278 1.091-6.624 0.903zM74.825 6.659v0c-0.141 1.761 0.008 3.488 0.447 5.183 0.439 1.694 1.129 3.221 2.07 4.58 0.941 1.353 2.116 2.464 3.525 3.333 1.408 0.869 3.01 1.375 4.803 1.519v0c1.861 0.149 3.557-0.109 5.089-0.776 1.532-0.666 2.861-1.61 3.989-2.83 1.135-1.22 2.037-2.626 2.706-4.217 0.669-1.585 1.07-3.211 1.204-4.879v0c0.141-1.761-0.008-3.478-0.449-5.152-0.44-1.681-1.14-3.208-2.1-4.583-0.954-1.367-2.129-2.478-3.525-3.333-1.39-0.847-2.966-1.342-4.726-1.483v0c-1.861-0.149-3.556 0.099-5.086 0.746-1.53 0.646-2.859 1.583-3.988 2.81-1.135 1.22-2.042 2.615-2.724 4.185-0.688 1.57-1.1 3.202-1.235 4.897zM133.576-7.627l-0.117 3.919-12.025-0.359-0.921 30.916-4.418-0.131 0.921-30.916-12.025-0.359 0.117-3.918zM142.443 23.168l19.238-0.228 0.047 3.929-23.658 0.281-0.414-34.847 23.218-0.276 0.047 3.92-18.799 0.223 0.134 11.289 16.349-0.194 0.044 3.69-16.349 0.194zM180.435 25.708l-12.058 0.73-2.106-34.787 12.058-0.73c3.72-0.225 6.878 0.362 9.474 1.761 2.596 1.399 4.592 3.375 5.989 5.929 1.404 2.553 2.202 5.43 2.396 8.631v0c0.214 3.534-0.289 6.646-1.509 9.338-1.212 2.698-3.033 4.842-5.461 6.432-2.428 1.59-5.356 2.488-8.783 2.696zM191.726 7.512v0c-0.158-2.609-0.781-4.898-1.869-6.869-1.087-1.965-2.581-3.464-4.48-4.498-1.899-1.034-4.17-1.471-6.811-1.311v0l-7.646 0.463 1.631 26.951 7.646-0.463c2.675-0.162 4.892-0.894 6.65-2.196 1.758-1.302 3.051-3.003 3.879-5.104 0.821-2.1 1.155-4.425 1-6.973zM229.674 11.975v0c0.201 1.789-0.082 3.4-0.847 4.834-0.758 1.433-1.867 2.611-3.327 3.533-1.466 0.922-3.124 1.487-4.972 1.694v0l-16.447 1.845-3.883-34.633 17.222-1.931c1.63-0.183 3.086 0.09 4.368 0.818 1.282 0.728 2.318 1.733 3.105 3.013 0.78 1.274 1.252 2.644 1.417 4.107v0c0.189 1.689-0.063 3.324-0.758 4.905-0.696 1.574-1.798 2.808-3.308 3.702v0c2.047 0.367 3.735 1.275 5.065 2.723 1.336 1.447 2.125 3.243 2.365 5.39zM225.144 11.688v0c-0.12-1.073-0.467-2.037-1.039-2.893-0.573-0.862-1.291-1.522-2.154-1.982-0.857-0.467-1.806-0.643-2.847-0.526v0l-12.392 1.39 1.335 11.905 12.054-1.352c1.073-0.12 2.01-0.504 2.81-1.15 0.799-0.653 1.4-1.455 1.803-2.406 0.403-0.951 0.546-1.946 0.43-2.986zM216.336-8.708l-11.319 1.269 1.296 11.558 11.021-1.236c1.047-0.117 1.938-0.482 2.675-1.095 0.737-0.606 1.291-1.376 1.663-2.309 0.372-0.927 0.5-1.911 0.383-2.952v0c-0.124-1.106-0.453-2.066-0.987-2.877-0.534-0.812-1.211-1.437-2.031-1.876-0.826-0.431-1.727-0.591-2.701-0.482zM241.567 19.234l-4.374 0.636-5.015-34.488 4.374-0.636zM247.692 18.195l-0.619-3.383 17.163-31.088-21.68 3.968-0.706-3.856 26.756-4.897 0.618 3.374-16.78 31.017 21.729-3.977 0.707 3.866z" opacity="1" transform="matrix(1,0,0,1,0,0)" fill="#ffffff" class="wordmark-text-0" data-fill-palette-color="primary" id="text-0"></path></svg></g></svg></g></svg></g></svg></g><g transform="matrix(1,0,0,1,179.1637929656553,0)"><svg viewBox="0 0 37.1924140686894 69.80148199392636" height="69.80148199392636" width="37.1924140686894"><g><svg xmlns="http://www.w3.org/2000/svg" xmlns:xlink="http://www.w3.org/1999/xlink" version="1.1" x="0" y="0" viewBox="13.98 3.007 21.438999999999997 40.236000000000004" enable-background="new 0 0 48 48" xml:space="preserve" height="69.80148199392636" width="37.1924140686894" class="icon-icon-0" data-fill-palette-color="accent" id="icon-0"><path d="M27.532 35.964C26.368 34.799 25.797 32.536 25.548 30.457H35.419S28.988 25.905 27.532 21.67L32.164 21.803S29.22 18.698 26.72 15.503H30.459S27.469 12.963 25.93 8.859L28.59 8.936S25.073 5.23 23.877 3.007C23.877 3.007 23.65 3.672 23.135 4.594A13 13 0 0 1 22.103 6.168C22.095 6.179 22.086 6.189 22.079 6.2A13 13 0 0 1 21.621 6.759C21.303 7.124 20.947 7.486 20.55 7.83L20.502 7.871C20.317 8.03 20.122 8.185 19.919 8.335L19.856 8.381C19.646 8.533 19.427 8.68 19.198 8.819L19.172 8.835H19.173L19.172 8.836H22.25A19 19 0 0 1 21.53 10.895C20.864 12.503 19.737 14.609 18.146 15.504H21.91C21.664 15.885 21.395 16.278 21.1 16.677 19.823 18.406 18.074 20.241 15.766 21.627H15.767L15.766 21.628H21.126S20.391 23.522 18.925 25.665C17.748 27.385 16.1 29.265 13.98 30.458H22.171C22.099 31.672 21.962 32.843 21.71 33.45A4 4 0 0 0 21.588 33.784C21.244 34.237 20.794 34.715 20.254 35.038 18.929 35.833 15.224 38.083 15.224 38.083L20.696 37.026C20.29 37.939 19.628 38.771 18.401 39.273L21.578 38.744 18.4 42.317 22.503 40.068 22.37 43.11 23.164 41.257 25.018 43.243V39.271L26.207 39.139 27.796 42.316 29.914 42.582 28.591 41.125 28.194 38.742 30.709 39.803 30.974 41.125 31.503 39.14 29.12 37.684 31.635 37.949S28.988 37.42 27.532 35.964" fill="#ffffff" data-fill-palette-color="accent"></path></svg></g></svg></g><g></g></svg></g><defs></defs></svg><rect width="395.52" height="143.77267007888915" fill="none" stroke="none" visibility="hidden"></rect></g></svg></g></svg>